<svg width="132" height="132" viewBox="0 0 132 132" fill="none" xmlns="http://www.w3.org/2000/svg">
<circle cx="66" cy="66" r="66" fill="#FF8743"/>
<path d="M82.0114 32C79.3585 32 76.7384 32.5868 74.339 33.7181C71.9396 34.8495 69.8204 36.4975 68.1332 38.5439C66.446 40.5903 65.2327 42.9845 64.5803 45.5548C63.9279 48.1252 63.8525 50.8079 64.3595 53.4108L38.6788 80.0065C36.9337 81.7938 35.9703 84.2008 36.0007 86.698C36.031 89.1952 37.0526 91.5781 38.8407 93.3224C40.6287 95.0667 43.0368 96.0296 45.5351 95.9993C48.0335 95.969 50.4174 94.9479 52.1626 93.1606L77.5994 67.4037C80.5876 68.1605 83.7203 68.1368 86.6967 67.3349C89.6731 66.533 92.3933 64.9798 94.5962 62.8244C96.7991 60.669 98.4107 57.9838 99.2764 55.0266C100.142 52.0693 100.233 48.9393 99.5395 45.937C99.4589 45.5902 99.287 45.2713 99.0417 45.0132C98.7964 44.7551 98.4865 44.5673 98.1442 44.4691C97.8018 44.3709 97.4395 44.366 97.0946 44.4548C96.7497 44.5436 96.4348 44.723 96.1825 44.9743L86.0078 55.1405L76.8481 45.9809L87.0189 35.8148C87.2703 35.5624 87.4496 35.2474 87.5382 34.9024C87.6269 34.5574 87.6216 34.195 87.5229 33.8527C87.4243 33.5104 87.2359 33.2007 86.9772 32.9558C86.7185 32.7108 86.399 32.5394 86.0518 32.4594C84.7279 32.1548 83.3739 32.0007 82.0154 32" fill="white"/>
</svg>
