<svg width="20" height="20" viewBox="0 0 20 20" fill="none" xmlns="http://www.w3.org/2000/svg">
<path fill-rule="evenodd" clip-rule="evenodd" d="M17.291 10C17.291 9.83427 17.2252 9.6753 17.108 9.55809C16.9907 9.44088 16.8318 9.37503 16.666 9.37503L4.84102 9.37503L8.77435 5.4417C8.83575 5.38448 8.88501 5.31548 8.91917 5.23882C8.95333 5.16215 8.9717 5.07939 8.97318 4.99547C8.97466 4.91155 8.95922 4.82819 8.92778 4.75037C8.89635 4.67255 8.84956 4.60185 8.79021 4.5425C8.73087 4.48315 8.66017 4.43637 8.58235 4.40493C8.50452 4.3735 8.42117 4.35806 8.33725 4.35954C8.25333 4.36102 8.17057 4.37939 8.0939 4.41355C8.01723 4.44771 7.94823 4.49696 7.89102 4.55837L2.89101 9.55837C2.77397 9.67556 2.70823 9.83441 2.70823 10C2.70823 10.1657 2.77397 10.3245 2.89101 10.4417L7.89102 15.4417C7.94823 15.5031 8.01723 15.5524 8.0939 15.5865C8.17057 15.6207 8.25333 15.639 8.33725 15.6405C8.42117 15.642 8.50452 15.6266 8.58235 15.5951C8.66017 15.5637 8.73086 15.5169 8.79021 15.4576C8.84956 15.3982 8.89635 15.3275 8.92778 15.2497C8.95922 15.1719 8.97466 15.0885 8.97318 15.0046C8.97169 14.9207 8.95333 14.8379 8.91917 14.7613C8.88501 14.6846 8.83575 14.6156 8.77435 14.5584L4.84102 10.625L16.666 10.625C16.8318 10.625 16.9907 10.5592 17.108 10.442C17.2252 10.3248 17.291 10.1658 17.291 10Z" fill="black"/>
</svg>
